<?xml version="1.0" encoding="iso-8859-1"?>
<!-- Generator: Adobe Illustrator 19.0.0, SVG Export Plug-In . SVG Version: 6.00 Build 0)  -->
<svg version="1.1" id="Capa_1" xmlns="http://www.w3.org/2000/svg" xmlns:xlink="http://www.w3.org/1999/xlink" x="0px" y="0px"
	 viewBox="0 0 511.999 511.999" style="enable-background:new 0 0 511.999 511.999;" xml:space="preserve">
<g>
	<g>
		<path d="M219.838,384.633c-7.057-7.19-17.178-9.159-26.752-6.676c-10.101,2.62-18.066,8.467-21.85,18.365
			c-1.823,4.77-1.974,9.985-0.666,14.904c4.57,17.181,24.091,21.914,38.563,13.663C222.456,417.294,232.331,397.362,219.838,384.633
			z M206.206,417.223c-10.643,6.647-25.255,4.034-28.515-9.207c-1.774-7.208,0.935-15.628,6.669-20.368
			c7.108-5.875,16.898-5.676,24.924-1.64C223.671,393.244,217.506,410.166,206.206,417.223z"/>
	</g>
</g>
<g>
	<g>
		<path d="M187.225,337.001c-3.391-2.147-9.693-0.652-13.535-0.706c-1.119-0.016-2.236-0.033-3.354-0.05
			c0.231-6.945,1.748-16.667-5.51-19.125c-5.798-1.963-22.221-2.496-26.079,3.598c-2.147,3.391-0.652,9.693-0.707,13.535
			c-0.006,0.432-0.012,0.863-0.019,1.294c-3.386-0.185-6.812-0.284-10.189,0.089c-1.378,0.152-2.802,0.357-4.119,0.807
			c-1.206,0.413-2.642,0.684-3.478,1.738c-0.676,0.853-0.902,2.119-1.216,3.142c-0.426,1.39-0.728,2.827-0.961,4.261
			c-0.468,2.875-0.585,5.794-0.494,8.702c0.136,4.356,0.488,8.881,1.678,13.093c0.27,0.955,1.06,1.825,2.053,2.054
			c4.935,1.134,10.361,1.442,15.954,1.349c-0.262,5.454-0.145,10.807,1.25,14.332c1.481,3.743,1.149,2.418,4.895,3.934
			c5.733,2.32,19.815,1.332,25.729-0.347c0.956-0.271,1.826-1.062,2.054-2.054c1.274-5.544,1.515-11.703,1.303-18.028
			c6.873,0.301,15.976,1.449,18.342-5.538C192.785,357.283,193.318,340.859,187.225,337.001z M137.706,364.049
			c-2.989,0.113-5.979,0.22-8.97,0.31c-0.95,0.028-1.946,0.047-2.793-0.384c-1.586-0.806-2.059-2.851-2.036-4.63
			c0.017-1.339,0.023-2.67,0.027-3.999c0.011-3.62,0.007-7.224,0.182-10.882c0.047-0.974,0.158-2.055,0.887-2.702
			c0.682-0.606,1.687-0.634,2.599-0.629c3.445,0.018,6.89,0.03,10.336,0.043c-0.085,6.217-0.124,12.415,0.108,18.631
			C137.945,361.146,137.825,362.576,137.706,364.049z M143.752,325.758c0.033-0.696,0.087-1.446,0.533-1.981
			c0.54-0.647,1.469-0.771,2.309-0.844c4.922-0.425,9.593-0.718,14.443,0.164c2.994,0.544,2.957,2.535,3.315,5.343
			c0.317,2.487,0.332,5.12,0.322,7.732c-5.516-0.064-11.022-0.077-16.54,0.129c-1.498-0.113-3.106-0.25-4.768-0.383
			C143.47,332.531,143.59,329.144,143.752,325.758z M143.223,341.198c7.163,0.031,14.326,0.091,21.488,0.237
			c0.209,7.182,0.507,14.37,0.797,21.564c-7.514,0.227-15.034,0.542-22.561,0.843C142.983,356.294,143.05,348.744,143.223,341.198z
			 M165.719,381.998c-0.806,1.586-2.851,2.059-4.63,2.036c-1.337-0.017-2.668-0.023-3.997-0.027
			c-3.619-0.011-7.224-0.007-10.882-0.182c-0.974-0.047-2.055-0.158-2.702-0.887c-0.607-0.683-0.634-1.686-0.629-2.599
			c0.018-3.256,0.029-6.512,0.04-9.769c7.757-0.441,15.627-1.386,22.819-1.819c0.134,3.484,0.261,6.968,0.366,10.455
			C166.131,380.154,166.15,381.151,165.719,381.998z M184.843,359.292c-0.544,2.994-2.535,2.957-5.343,3.315
			c-2.354,0.3-4.839,0.328-7.314,0.323c-0.494-7.3-1.355-14.64-1.732-21.356c3.911,0.109,7.821,0.245,11.728,0.433
			c0.696,0.033,1.446,0.087,1.981,0.533c0.647,0.54,0.772,1.47,0.844,2.309C185.432,349.77,185.725,354.442,184.843,359.292z"/>
	</g>
</g>
<g>
	<g>
		<path d="M331.694,396.323c-3.784-9.898-11.75-15.745-21.851-18.365c-9.573-2.483-19.694-0.514-26.752,6.676
			c-12.493,12.729-2.617,32.661,10.706,40.256c14.472,8.251,33.993,3.518,38.563-13.663
			C333.669,406.307,333.518,401.091,331.694,396.323z M325.238,408.016c-3.26,13.241-17.872,15.854-28.515,9.207
			c-11.3-7.057-17.465-23.979-3.078-31.215c8.026-4.036,17.816-4.235,24.924,1.64C324.303,392.388,327.013,400.81,325.238,408.016z"
			/>
	</g>
</g>
<g>
	<g>
		<path d="M385.385,350.573c-0.068-2.708-0.298-5.418-1.034-8.033c-0.306-1.087-0.237-2.466-0.587-3.452
			c-0.554-1.565-2.263-1.782-3.662-2.335c-3.71-1.468-9.444-1.523-15.192-1.208c-0.006-0.432-0.013-0.862-0.019-1.294
			c-0.054-3.842,1.441-10.144-0.706-13.535c-3.859-6.094-20.282-5.56-26.08-3.598c-7.258,2.458-5.741,12.18-5.51,19.125
			c-1.118,0.017-2.234,0.034-3.354,0.05c-3.842,0.054-10.144-1.441-13.535,0.706c-6.094,3.859-5.561,20.282-3.598,26.08
			c2.366,6.988,11.468,5.841,18.341,5.539c-0.211,6.325,0.029,12.485,1.303,18.028c0.229,0.993,1.099,1.784,2.055,2.054
			c5.914,1.679,19.996,2.667,25.729,0.347c3.746-1.516,3.414-0.19,4.895-3.934c1.394-3.525,1.511-8.878,1.25-14.332
			c5.593,0.093,11.019-0.215,15.954-1.349c0.993-0.229,1.784-1.099,2.055-2.055C385.208,362.021,385.525,356.107,385.385,350.573z
			 M330.742,362.93c-2.474,0.006-4.959-0.023-7.314-0.323c-2.808-0.358-4.798-0.32-5.343-3.315
			c-0.88-4.851-0.587-9.522-0.163-14.443c0.073-0.839,0.197-1.769,0.844-2.309c0.535-0.446,1.285-0.5,1.981-0.533
			c3.908-0.188,7.817-0.324,11.727-0.433C332.097,348.29,331.236,355.63,330.742,362.93z M338.578,328.44
			c0.358-2.808,0.32-4.798,3.315-5.343c4.851-0.882,9.522-0.589,14.443-0.164c0.839,0.073,1.769,0.197,2.309,0.844
			c0.446,0.535,0.5,1.285,0.533,1.981c0.163,3.386,0.283,6.772,0.386,10.16c-1.662,0.133-3.27,0.27-4.768,0.383
			c-5.518-0.206-11.024-0.193-16.539-0.129C338.246,333.559,338.26,330.927,338.578,328.44z M338.219,341.435
			c7.162-0.145,14.325-0.205,21.488-0.237c0.173,7.547,0.24,15.096,0.276,22.644c-7.526-0.301-15.047-0.616-22.561-0.843
			C337.713,355.805,338.01,348.617,338.219,341.435z M359.423,382.938c-0.648,0.729-1.728,0.84-2.702,0.887
			c-3.658,0.175-7.262,0.171-10.882,0.182c-1.329,0.004-2.661,0.01-3.997,0.027c-1.779,0.023-3.824-0.45-4.63-2.036
			c-0.431-0.847-0.412-1.844-0.384-2.794c0.105-3.487,0.232-6.971,0.366-10.455c7.192,0.433,15.061,1.377,22.818,1.819
			c0.011,3.259,0.022,6.515,0.04,9.771C360.057,381.251,360.029,382.255,359.423,382.938z M376.987,363.972
			c-0.847,0.431-1.844,0.412-2.794,0.384c-2.991-0.09-5.981-0.197-8.97-0.31c-0.12-1.474-0.239-2.904-0.34-4.242
			c0.232-6.216,0.192-12.414,0.108-18.631c3.446-0.01,6.891-0.022,10.336-0.041c0.913-0.005,1.917,0.023,2.6,0.629
			c0.729,0.648,0.84,1.729,0.887,2.702c0.175,3.658,0.171,7.263,0.182,10.882c0.004,1.329,0.01,2.661,0.027,3.997
			C379.046,361.121,378.573,363.166,376.987,363.972z"/>
	</g>
</g>
<g>
	<g>
		<path d="M278.404,357.18c-1.744-4.986-6.808-5.966-11.482-5.981c-6.345-0.021-12.851,0.383-19.298,1.047
			c-4.728-0.248-9.451-0.309-14.091,0.255c-4.236,0.515-8.763,2.131-10.139,6.666c-4.69,15.458,22.569,12.992,29.887,13.013
			C261.458,372.203,283.62,372.089,278.404,357.18z M267.094,365.915c-1.277,0.342-2.566,0.543-3.864,0.652
			c-4.758,0.403-9.521-0.313-14.286,0.001c-4.98,0.329-10.075,1.14-14.993-0.124c-1.426-0.367-2.916-0.993-3.646-2.271
			c-1.094-1.914,0.092-4.481,1.959-5.655c2.187-1.375,5.365-1.605,7.892-1.573c6.208,0.078,12.362,0.495,18.593,0.336
			c3.295-0.084,10.763-1.539,13.576,0.93C276.358,361.748,270.231,365.076,267.094,365.915z"/>
	</g>
</g>
<g>
	<g>
		<path d="M494.434,287.155c-1.255-0.764-8.536-2.976-8.886-4.224c-1.034-3.697,8.439-10.38,10.538-12.369
			c9.166-8.687,25.023-21.395,9.162-31.366c-7.422-4.666-15.365-8.62-23.48-12.338c-0.55-36.128-1.91-71.55,0.466-107.715
			c2.119-32.261,5.47-64.657,6.105-96.985c0.143-7.308-1.244-13.064-9.145-14.822c-4.013-0.892-8.368,0.279-12.412,0.505
			C456.649,8.404,446.3,7.76,436.157,7.39c-37.46-1.367-74.886-2.958-112.372-3.551c-73.637-1.165-147.452-1.904-221.094-1.053
			c-16.818,0.196-33.633,0.567-50.44,1.171c-8.566,0.308-24.22-3.003-29.848,5.73c-4.818,7.475-1.698,21.76-1.707,30.006
			c-0.021,18.545-0.083,37.093,0.352,55.634c0.956,40.751,4.165,81.214,4.251,122.022c0.022,10.217,0.062,20.435,0.32,30.65
			c0.13,5.127-1.041,12.365,1.75,16.969c4.817,7.947,17.224,3.065,25.224,3.436c-1.136,3.061-2.279,6.121-3.389,9.185
			c-9.422,26.02-19.208,52.846-26.528,80.014c-7.587,20.377-14.063,40.968-19.13,62.336c-4.303,18.147-8.63,38.796,12.535,48.115
			c15.184,6.686,32.157-0.722,41.286-13.551c7.058-9.918,11.307-21.558,15.809-32.775c4.104-10.225,8.765-20.42,12.282-30.929
			c1.3,4.339,2.395,8.727,2.839,13.28c1.174,12.04-1.497,23.896-4.57,35.458c-4.314,16.233-14.167,37.99-6.982,54.739
			c13.618,31.744,60.033,6.81,75.408-9.442c6.522-6.894,12.042-14.745,16.938-22.853c3.932-6.511,5.92-11.263,12.55-15.392
			c7.177-4.47,10.316-1.838,17.93-1.144c14.549,1.326,26.912-6.826,33.277-19.206c6.241,0.32,12.415,0.678,18.617,0.286
			c6.202,0.392,12.377,0.034,18.617-0.286c6.365,12.38,18.728,20.532,33.277,19.206c7.615-0.694,10.753-3.326,17.93,1.144
			c6.631,4.129,8.619,8.881,12.551,15.392c4.895,8.108,10.416,15.959,16.938,22.853c15.374,16.252,61.79,41.186,75.407,9.442
			c7.185-16.75-2.668-38.507-6.982-54.739c-3.073-11.562-5.744-23.418-4.569-35.458c1.012-10.369,5.327-19.909,8.012-29.874
			c8.037-29.834-4.785-61.73-30.178-79.063c-28.125-19.198-65.488-15.176-92.32,3.945c-4.149,2.1-8.407,3.982-13.177,4.764
			c-11.779,1.93-23.74-0.829-35.506,0.129c-11.766-0.958-23.727,1.801-35.506-0.129c-4.77-0.782-9.027-2.665-13.176-4.764
			c-21.535-15.345-49.845-20.933-74.726-12.63c2.183-6.088,4.283-12.204,6.349-18.332c47.623,2.392,95.998-0.357,143.679-0.198
			c24.763,0.082,49.566,0.239,74.308,1.35c21.249,0.954,44.984,5.458,66.234,2.786c0.369,2.838,0.748,5.694,1.091,8.49
			c0.896,7.314-0.716,31.062,10.66,31.416c5.258,0.163,10.217-5.544,14.156-8.341c4.51-3.203,9.35-8.178,15.545-4.414
			c2.755,1.675,5.559,7.328,7.411,10.017c4.108,5.963,9.613,19.408,18.736,15.53c6.412-2.725,18.447-17.309,18.094-24.809
			C504.049,294.183,499.008,289.942,494.434,287.155z M298.741,12.578c2.239,0.022,4.479,0.044,6.719,0.066
			c27.92,0.281,55.835,0.944,83.741,1.903c-0.891,6.706-0.527,13.652-1.003,20.367c-0.678,9.585-1.931,19.147-2.372,28.744
			c-0.478,10.408,2.526,28.357-10.591,32.883c-7.598,2.622-18.557,0.985-26.308,0.897c-10.279-0.116-20.551-0.519-30.829-0.733
			c-1.738-0.036-7.978,0.491-10.024-0.106c-9.244-2.695-7.842-13.747-8.317-20.619C298.3,54.917,297.682,33.679,298.741,12.578z
			 M20.644,384.632c11.843-33.278,21.264-67.436,33.87-100.501c13.176-34.564,27.983-68.243,43.289-101.857
			c5.212,10.695,17.755,16.544,27.276,11.246c-14.622,29.543-29.238,58.446-41.226,89.365c-6.7,17.278-13.574,34.508-19.88,51.935
			c-6.08,16.8-10.432,34.966-17.149,51.524c-8.923-3.235-18.273-4.228-26.366-1.058C20.522,385.069,20.581,384.849,20.644,384.632z
			 M137.27,151.491c3.785,3.352,10.142,5.365,15.381,4.083c-0.013,0.391-0.033,0.788-0.044,1.177
			c-0.192,7.194-0.035,14.39-0.137,21.585c-0.04,2.869,0.41,6.147,0.114,8.943c-0.258,2.437-2.949,4.692-5,5.686
			c-3.064,1.485-8.666,1.513-11.371-0.916c-3.465-3.111-0.007-10.906-5.171-12.605c-1.325-0.436-2.814,0.077-3.89,0.965
			c-2.405,1.986-3.663,4.456-6.623,5.947c-2.942,1.482-6.358,1.659-9.445,0.512c-6.787-2.525-9.542-10.274-7.385-16.68
			c0.426-1.267,1.045-2.481,1.862-3.592c2.052-2.79,4.814-5.075,7.15-7.61c2.57-2.791,5.211-5.523,8.039-8.054
			c3.81-3.41,7.79-6.602,11.778-9.789C132.476,144.975,134.101,148.685,137.27,151.491z M136.034,138.33
			c0.166-0.134,0.331-0.265,0.497-0.399c3.881-3.124,6.979-7.244,11.226-9.938c4.05-2.569,4.306,2.525,4.776,5.717
			c0.191,1.294,1.395,14.013,0.433,14.209c-4.241,0.864-7.606,1.472-11.658-0.953C137.994,144.985,136.317,141.874,136.034,138.33z
			 M60.537,431.181c-3.904,9.477-8.575,20.637-17.211,26.702c-9.211,6.467-22.859,7.429-31.033-1.511
			c-8.153-8.919-4.278-20.55-1.804-30.747c1.443-5.947,2.721-11.923,4.076-17.883c17.428-5.832,37.03,4.551,48.563,16.998
			C62.263,426.886,61.419,429.039,60.537,431.181z M66.573,416.099c-9.686-12.821-35.099-19.332-50.603-14.352
			c0.531-2.189,1.075-4.376,1.668-6.553c0.342-1.256,0.716-2.505,1.07-3.76c18.099-6.085,37.828,6.255,49.964,19.12
			C67.963,412.4,67.292,414.257,66.573,416.099z M191.4,301.289c6.511,5.763,12.371,11.706,22.288,13.642
			c7.135,1.393,14.47,1.283,21.687,0.732c3.444-0.263,7.139-1.136,10.577-0.978c6.943,0.319,13.629,0.324,20.546,0.894
			c7.562,0.623,15.259,0.814,22.742-0.647c9.918-1.936,15.777-7.879,22.288-13.642c33.289-15.109,75.573-9.942,94.868,24.689
			c9.777,17.549,8.834,34.896,2.338,53.312c-6.007,17.027-8.209,31.707-4.7,49.63c2.926,14.948,24.095,58.744,3.825,67.454
			c-18.926,8.132-42.503-10.579-53.602-23.83c-9.216-11.003-14.982-30.629-28.182-37.557c-5.08-2.665-10.267-2.417-15.765-1.559
			c-13.773,2.149-26.2,1.185-32.1-13.852c-0.807-2.056-2.527-3.898-4.958-3.775c-14.589,0.738-29.083,0.734-43.575,0
			c-2.431-0.123-4.152,1.719-4.959,3.775c-5.9,15.037-18.327,16.002-32.1,13.852c-5.498-0.858-10.685-1.106-15.765,1.559
			c-13.201,6.927-18.967,26.554-28.182,37.557c-11.1,13.251-34.676,31.962-53.602,23.83c-20.27-8.71,0.898-52.506,3.824-67.454
			c3.509-17.922,1.307-32.602-4.699-49.63c-6.496-18.416-7.439-35.763,2.338-53.312C115.828,291.347,158.111,286.18,191.4,301.289z
			 M118.321,290.565c-2.678,1.362-5.317,2.841-7.858,4.577c-25.394,17.333-38.215,49.229-30.178,79.063
			c0.231,0.855,0.486,1.704,0.737,2.553c-2.94,8.501-6.014,16.942-9.156,25.358c-5.078-4.946-11.725-9.69-18.935-13.182
			c5.436-13.859,8.98-28.928,13.857-42.981c6.338-18.263,13.221-36.322,20.175-54.358c7.379-19.139,15.035-38.165,23.438-56.879
			c6.145-13.685,13.507-27.29,18.424-41.536c3.812,6.611,11.351,9.811,19.014,8.078C137.87,230.957,127.173,260.535,118.321,290.565
			z M175.714,150.128c0.57,10.961,0.241,21.992,0.242,32.966c0.002,25.319-0.464,50.712,1.041,75.984
			c-13.472-0.046-27.013,0.162-40.232,2.006c2.251-6.794,4.461-13.601,6.648-20.415c2.406-7.498,4.788-15.003,7.19-22.503
			c4.185-13.062,9.938-25.083,10.622-39.046c0.421-8.596-0.609-17.186-0.289-25.782c0.448-12.012,1-24.084-4.775-35.003
			c-0.796-1.505-3.045-2.524-4.699-1.912c-12.09,4.469-23.528,17.439-33.07,25.742c-7.556,6.574-18.32,15.874-22.425,26.083
			c-0.011,0.02-0.023,0.034-0.034,0.055c-15.28,29.98-28.672,61.259-40.618,92.82c-4.861-1.008-9.366-0.333-14.281-0.942
			c-6.181-0.766-5.607-0.089-6.131-7.073c-1.268-16.903-0.444-34.142-0.49-51.083c-0.082-30.635-2.58-60.954-3.787-91.529
			c-0.599-15.171-0.776-30.356-0.828-45.537c-0.048-13.897-2.331-29.8-0.492-43.49c1.602-11.925,25.603-8.536,35.007-8.815
			c16.249-0.482,32.504-0.757,48.76-0.886c7.336-0.058,14.675-0.049,22.012-0.077c-1.467,10.739-2.533,22.174,0.251,32.628
			c3.262,12.252,11.928,14.901,23.791,14.417c19.18-0.783,38.777-0.969,57.852-3.089c6.96-0.774,13.983-2.008,21.016-1.54
			c15.248,1.013,10.22,15.109,8.942,25.764c-1.241,10.35,1.328,31.414-10.207,36.583c-7.853,3.519-21.2,1.051-29.557,1.514
			c-12.303,0.681-26.94-1.345-30.981,12.966C174.446,137.117,175.386,143.828,175.714,150.128z M296.331,258.782
			c-8.645-0.064-17.29-0.102-25.934-0.102c-23.775-0.001-47.549,0.322-71.323,0.476c-6.251,0.041-12.569-0.024-18.907-0.062
			c1.833-24.401,1.725-48.943,1.844-73.414c0.058-11.83,0.414-23.735-0.17-35.552c-0.524-10.615-3.334-21.783,10.805-25.401
			c14.65-3.749,34.853,3.926,48.454-3.555c11.891-6.54,10.558-25.922,11.68-37.261c1.001-10.126,7.804-27.538-3.934-33.743
			c-9.666-5.109-23.675-1.406-33.844-0.32c-9.214,0.984-18.518,1.06-27.776,1.305c-10.321,0.272-21.396,2.244-31.678,1.608
			c-20.087-1.243-16.662-25.66-14.408-41.093c51.309-0.138,102.647,0.355,153.945,0.872c-1.72,13.753-2.7,27.471-2.499,41.36
			c0.184,12.673-1.134,28.22,2.24,40.473c1.754,6.369,5.472,7.927,11.724,8.498c13.145,1.2,26.796,0.708,40.006,0.915
			c14.596,0.229,37.185,4.163,43.307-13.249c3.619-10.293,2.272-22.102,3.065-32.807c1.012-13.663,0.202-29.253,2.622-42.964
			c2.241,0.081,4.482,0.148,6.722,0.233c14.361,0.544,28.718,1.323,43.086,1.668c-0.853,16.504-1.827,33.005-2.621,49.512
			c-0.76,15.796,0.68,34.397-3.779,49.662c-5.247,17.958-33.182,15.299-48.303,15.375c-16.642,0.083-33.287-0.342-49.93-0.274
			c-10.176,0.042-25.228-2.304-34.092,4.087c-7.576,5.462-9.042,15.847-9.881,24.494
			C293.508,192.94,296.086,225.483,296.331,258.782z M380.749,261.516c-12.89-0.686-25.769-1.52-38.672-1.92
			c-12.943-0.403-25.892-0.629-38.842-0.76c0.627-16.374-2.285-33.222-2.21-49.719c0.076-16.465,0.846-33.204,2.446-49.594
			c0.333-3.421,0.651-7.248,1.847-10.514c3.871-10.564,8.973-10.189,18.059-10.917c8.201-0.656,16.573-0.366,24.792-0.337
			c16.489,0.058,33.016,0.585,49.501,0.197c20.622-0.486,44.838,0.076,48.203-24.387c2.046-14.869,2.371-29.991,2.799-44.972
			c0.491-17.181,2.288-34.653,0.767-51.818c6.624,0.127,13.297,0.343,19.91-0.084c7.88-0.51,10.056,0.748,9.683,8.803
			c-1.523,32.883-4.068,65.696-6.136,98.553c-2.086,33.136-0.739,65.666-0.287,98.714c-10.774-4.74-21.622-9.374-31.754-14.969
			c-6.499-3.589-34.102-24.406-37.95-8.322c-1.867,7.804,4.149,21.553,5.855,28.973c1.908,8.3,4.601,16.346,7.165,24.418
			c0.52,3.338,0.981,6.658,1.448,9.979C405.693,264.297,392.336,262.133,380.749,261.516z M493.562,302.946
			c-0.423,2.301-4.822,6.262-6.424,8.093c-3.721,4.25-2.064,5.78-5.597,2.406c-4.005-3.823-6.992-10.494-10.288-15.016
			c-8.543-11.719-15.244-13.658-27.568-5.617c-2.592,1.691-5.591,3.5-7.878,5.583c-3.132,2.852-2.866,5.313-4.6,1.687
			c-3.604-7.533-2.72-21.387-3.982-29.75c0.32-0.513,0.483-1.148,0.405-1.901c-0.59-5.751-1.927-11.284-3.468-16.776
			c-2.686-15.09-6.195-30.55-11.591-44.384c0.032-1.6,0.316-2.836,0.994-3.451c2.064-1.872,29.606,15.617,32.96,17.404
			c9.918,5.283,20.173,9.821,30.384,14.498c5.959,2.729,11.91,5.474,17.807,8.337c7.852,3.813,6.883,6.715,1.79,13.661
			c-5.329,7.269-16.673,11.823-20.349,20.299C469.569,293.209,495.847,290.51,493.562,302.946z"/>
	</g>
</g>
<g>
	<g>
		<path d="M268.465,158.37c-18.3-16.671-62.446-9.941-68.26,17.095c-2.959,5.353-4.755,10.955-4.855,16.201
			c-0.562,29.505,33.201,44.542,57.64,32.497C277.013,212.324,291.001,178.9,268.465,158.37z M253.149,216.248
			c-20.208,12.039-51.66,1.997-51.247-24.581c0.178-11.506,8.346-23.217,19.114-30.488c13.512-7.523,29.881-9.257,42.399,2.242
			C281.111,179.678,271.405,205.373,253.149,216.248z"/>
	</g>
</g>
<g>
	<g>
		<path d="M360.655,173.625c-3.825-3.65-9.302,1.889-5.778,5.778c1.972,2.177,4.19,4.539,5.92,7.125
			c-15.001,0.853-30.208,0.507-45.203,1.096c-2.384,0.094-3.056,3.683-0.58,4.287c14.188,3.462,31.475,3.3,46.557,2.482
			c-2.453,3.955-7.135,6.898-9.49,10.946c-2.25,3.869,3.213,8.382,6.338,4.891c4.468-4.992,12.857-11.799,13.473-18.911
			C372.486,184.47,365.124,177.89,360.655,173.625z"/>
	</g>
</g>
<g>
	<g>
		<path d="M176.073,101.19c-8.526-4.688-15.729-10.923-23.62-16.528c-7.448-5.29-15.073-10.117-22.143-15.858
			c3.193-0.066,6.386-0.069,9.587-0.188c5.15-0.192,5.133-7.731,0-7.989c-5.51-0.276-10.987-0.252-16.484,0.222
			c-9.095,0.785,0.818,23.3,2.32,27.203c1.893,4.919,9.124,3.097,7.989-2.202c-0.352-1.643-0.719-3.268-1.094-4.889
			c4.729,3.388,9.59,6.592,14.512,9.787c8.697,5.645,16.612,12.691,26.68,15.785C176.978,107.504,178.983,102.791,176.073,101.19z"
			/>
	</g>
</g>
<g>
</g>
<g>
</g>
<g>
</g>
<g>
</g>
<g>
</g>
<g>
</g>
<g>
</g>
<g>
</g>
<g>
</g>
<g>
</g>
<g>
</g>
<g>
</g>
<g>
</g>
<g>
</g>
<g>
</g>
</svg>
